<?xml version="1.0" encoding="UTF-8" standalone="no" ?>
<!DOCTYPE svg PUBLIC "-//W3C//DTD SVG 1.1//EN" "http://www.w3.org/Graphics/SVG/1.1/DTD/svg11.dtd">
<svg xmlns="http://www.w3.org/2000/svg" xmlns:xlink="http://www.w3.org/1999/xlink" version="1.1" width="25" height="25" viewBox="0 0 25 25" xml:space="preserve">
<desc>Created with Fabric.js 4.6.0</desc>
<defs>
</defs>
<g transform="matrix(3.25 0 0 3.25 12.5 12.5)" id="8haZnbRiPo_weZyCUJFQX"  >
<path style="stroke: rgb(29,217,205); stroke-width: 0; stroke-dasharray: none; stroke-linecap: butt; stroke-dashoffset: 0; stroke-linejoin: miter; stroke-miterlimit: 4; fill: rgb(66,133,244); fill-rule: nonzero; opacity: 0.3;" vector-effect="non-scaling-stroke"  transform=" translate(0, 0)" d="M 0 -3.75218 C 2.0712 -3.75218 3.75218 -2.0712 3.75218 0 C 3.75218 2.0712 2.0712 3.75218 0 3.75218 C -2.0712 3.75218 -3.75218 2.0712 -3.75218 0 C -3.75218 -2.0712 -2.0712 -3.75218 0 -3.75218 z" stroke-linecap="round" />
</g>
<g transform="matrix(1.74 0 0 1.74 12.5 12.5)" id="74gd2umwENrgxFA5qYeGe"  >
<path style="stroke: rgb(255,255,255); stroke-width: 1; stroke-dasharray: none; stroke-linecap: butt; stroke-dashoffset: 0; stroke-linejoin: miter; stroke-miterlimit: 4; fill: rgb(66,133,244); fill-rule: nonzero; opacity: 1;" vector-effect="non-scaling-stroke"  transform=" translate(0, 0)" d="M 0 -3.75218 C 2.0712 -3.75218 3.75218 -2.0712 3.75218 0 C 3.75218 2.0712 2.0712 3.75218 0 3.75218 C -2.0712 3.75218 -3.75218 2.0712 -3.75218 0 C -3.75218 -2.0712 -2.0712 -3.75218 0 -3.75218 z" stroke-linecap="round" />
</g>
</svg>