<?xml version="1.0" encoding="UTF-8" standalone="no" ?>
<!DOCTYPE svg PUBLIC "-//W3C//DTD SVG 1.1//EN" "http://www.w3.org/Graphics/SVG/1.1/DTD/svg11.dtd">
<svg xmlns="http://www.w3.org/2000/svg" xmlns:xlink="http://www.w3.org/1999/xlink" version="1.1" width="36" height="36" viewBox="0 0 40 40" xml:space="preserve">
<desc>Created with Fabric.js 4.6.0</desc>
<defs>
</defs>
<g transform="matrix(2.34 0 0 2.34 19.99 20)" id="QphTklHd80ZK6hfDRPBfy"  >
<path style="stroke: rgb(0,0,0); stroke-width: 2; stroke-dasharray: none; stroke-linecap: butt; stroke-dashoffset: 0; stroke-linejoin: miter; stroke-miterlimit: 4; fill: rgb(248,204,35); fill-opacity: 0; fill-rule: nonzero; opacity: 1;" vector-effect="non-scaling-stroke"  transform=" translate(0, 0)" d="M 0 -3.84927 C 2.1248 -3.84927 3.84927 -2.1248000000000005 3.84927 0 C 3.84927 2.1248 2.1248000000000005 3.84927 0 3.84927 C -2.1248 3.84927 -3.84927 2.1248000000000005 -3.84927 0 C -3.84927 -2.1248 -2.1248000000000005 -3.84927 0 -3.84927 z" stroke-linecap="round" />
</g>
<g transform="matrix(1.73 0 0 1.73 19.99 20)" id="Xu08YlpgcPpbnBjasj_34"  >
<path style="stroke: rgb(0,0,0); stroke-width: 0; stroke-dasharray: none; stroke-linecap: butt; stroke-dashoffset: 0; stroke-linejoin: miter; stroke-miterlimit: 4; fill: rgb(0,0,0); fill-rule: nonzero; opacity: 1;" vector-effect="non-scaling-stroke"  transform=" translate(0, 0)" d="M 0 -2.55268 C 1.40908 -2.55268 2.55268 -1.40908 2.55268 0 C 2.55268 1.40908 1.40908 2.55268 0 2.55268 C -1.40908 2.55268 -2.55268 1.40908 -2.55268 0 C -2.55268 -1.40908 -1.40908 -2.55268 0 -2.55268 z" stroke-linecap="round" />
</g>
<g transform="matrix(0.61 0 0 2.57 19.99 9.3)" id="A8Suvjs8ObaUfI0iYKWV3"  >
<path style="stroke: rgb(0,0,0); stroke-width: 0; stroke-dasharray: none; stroke-linecap: butt; stroke-dashoffset: 0; stroke-linejoin: miter; stroke-miterlimit: 4; fill: rgb(0,0,0); fill-rule: nonzero; opacity: 1;" vector-effect="non-scaling-stroke"  transform=" translate(0, 0)" d="M -1.03323 -0.85073 C -1.03323 -0.95152 -0.68808 -1.03323 -0.2623200000000001 -1.03323 L 0.2623199999999999 -1.03323 L 0.2623199999999999 -1.03323 C 0.6880799999999999 -1.03323 1.0332299999999999 -0.9515200000000001 1.0332299999999999 -0.8507300000000001 L 1.0332299999999999 0.8507199999999998 L 1.0332299999999999 0.8507199999999998 C 1.0332299999999999 0.9515099999999999 0.6880799999999998 1.0332199999999998 0.2623199999999999 1.0332199999999998 L -0.2623200000000001 1.0332199999999998 L -0.2623200000000001 1.0332199999999998 C -0.6880800000000001 1.0332199999999998 -1.03323 0.9515099999999999 -1.03323 0.8507199999999998 z" stroke-linecap="round" />
</g>
<g transform="matrix(0.61 0 0 2.57 20 30.7)" id="dckQFCm9bC5V5IjgJ9391"  >
<path style="stroke: rgb(0,0,0); stroke-width: 0; stroke-dasharray: none; stroke-linecap: butt; stroke-dashoffset: 0; stroke-linejoin: miter; stroke-miterlimit: 4; fill: rgb(0,0,0); fill-rule: nonzero; opacity: 1;" vector-effect="non-scaling-stroke"  transform=" translate(0, 0)" d="M -1.03323 -0.85058 C -1.03323 -0.95145 -0.6889100000000001 -1.03323 -0.2641800000000001 -1.03323 L 0.2641699999999999 -1.03323 L 0.2641699999999999 -1.03323 C 0.6889099999999999 -1.03323 1.03322 -0.9514500000000001 1.03322 -0.8505800000000001 L 1.03322 0.8505799999999999 L 1.03322 0.8505799999999999 C 1.03322 0.9514499999999999 0.6889000000000001 1.0332299999999999 0.26417 1.0332299999999999 L -0.26417999999999997 1.0332299999999999 L -0.26417999999999997 1.0332299999999999 C -0.68892 1.0332299999999999 -1.03323 0.9514499999999999 -1.03323 0.8505799999999999 z" stroke-linecap="round" />
</g>
<g transform="matrix(0 0.61 -2.57 0 30.7 20)" id="1TYdA7dFBqywsVV7AszJJ"  >
<path style="stroke: rgb(0,0,0); stroke-width: 0; stroke-dasharray: none; stroke-linecap: butt; stroke-dashoffset: 0; stroke-linejoin: miter; stroke-miterlimit: 4; fill: rgb(0,0,0); fill-rule: nonzero; opacity: 1;" vector-effect="non-scaling-stroke"  transform=" translate(0, 0)" d="M -1.03323 -0.85058 C -1.03323 -0.95145 -0.6889100000000001 -1.03323 -0.2641800000000001 -1.03323 L 0.2641699999999999 -1.03323 L 0.2641699999999999 -1.03323 C 0.6889099999999999 -1.03323 1.03322 -0.9514500000000001 1.03322 -0.8505800000000001 L 1.03322 0.8505799999999999 L 1.03322 0.8505799999999999 C 1.03322 0.9514499999999999 0.6889000000000001 1.0332299999999999 0.26417 1.0332299999999999 L -0.26417999999999997 1.0332299999999999 L -0.26417999999999997 1.0332299999999999 C -0.68892 1.0332299999999999 -1.03323 0.9514499999999999 -1.03323 0.8505799999999999 z" stroke-linecap="round" />
</g>
<g transform="matrix(0 0.61 -2.57 0 9.3 20)" id="4EuUQ02BqqhPQjqTxUb2Q"  >
<path style="stroke: rgb(0,0,0); stroke-width: 0; stroke-dasharray: none; stroke-linecap: butt; stroke-dashoffset: 0; stroke-linejoin: miter; stroke-miterlimit: 4; fill: rgb(0,0,0); fill-rule: nonzero; opacity: 1;" vector-effect="non-scaling-stroke"  transform=" translate(0, 0)" d="M -1.03323 -0.85058 C -1.03323 -0.95145 -0.6889100000000001 -1.03323 -0.2641800000000001 -1.03323 L 0.2641699999999999 -1.03323 L 0.2641699999999999 -1.03323 C 0.6889099999999999 -1.03323 1.03322 -0.9514500000000001 1.03322 -0.8505800000000001 L 1.03322 0.8505799999999999 L 1.03322 0.8505799999999999 C 1.03322 0.9514499999999999 0.6889000000000001 1.0332299999999999 0.26417 1.0332299999999999 L -0.26417999999999997 1.0332299999999999 L -0.26417999999999997 1.0332299999999999 C -0.68892 1.0332299999999999 -1.03323 0.9514499999999999 -1.03323 0.8505799999999999 z" stroke-linecap="round" />
</g>
</svg>